<svg xmlns="http://www.w3.org/2000/svg" width="878.867" height="105.743"><path fill-rule="evenodd" clip-rule="evenodd" fill="#FAFAFA" d="M0 105.743h29.457V23.717H69.64v82.026h29.608V0H0v105.743zM151.966 0l-46.678 105.743h30.515l8.308-20.545h44.714l8.308 20.545h31.119L181.422 0h-29.456zm.906 63.144l13.595-33.838 13.596 33.838h-27.191zm172.511-42.196a33.957 33.957 0 0 0-1.512-2.594c-3.828-5.892-9.267-10.424-16.314-13.596C300.507 1.587 292.198 0 282.632 0h-48.339v105.743h29.91V78.099h18.429c9.566 0 17.875-1.586 24.925-4.758 7.048-3.173 12.486-7.679 16.314-13.521 3.826-5.839 5.741-12.738 5.741-20.695 0-5.661-.989-10.791-2.928-15.408h31.176v82.026h29.457V23.717h32.327V0h-94.262v20.948zM294.717 50.53c-3.123 2.67-7.756 4.003-13.897 4.003h-16.617V23.565h16.617c6.142 0 10.775 1.36 13.897 4.079 3.12 2.719 4.683 6.548 4.683 11.48-.001 4.937-1.563 8.739-4.683 11.406zm203.328-10.801h-40.786V0h-29.91v105.743h29.91v-41.24h40.786v41.24h29.91V0h-29.91v39.729zm76.134 23.566h46.98V40.938h-46.98V23.112h53.325V0h-82.933v105.743h84.896V82.631h-55.289V63.295zM713.758 4.759C706.707 1.587 698.399 0 688.833 0h-48.34v105.743h29.91V78.099h18.43c9.566 0 17.874-1.586 24.925-4.758 7.048-3.173 12.486-7.679 16.314-13.521 3.826-5.839 5.74-12.738 5.74-20.695 0-7.954-1.914-14.88-5.74-20.771-3.828-5.891-9.266-10.423-16.314-13.595zM700.917 50.53c-3.122 2.67-7.756 4.003-13.897 4.003h-16.616V23.565h16.616c6.142 0 10.775 1.36 13.897 4.079 3.121 2.719 4.684 6.548 4.684 11.48 0 4.937-1.563 8.739-4.684 11.406zM849.411 0v105.743h29.456V0h-29.456zm-22.206 42.373c-7.051-5.79-17.07-8.687-30.062-8.687h-24.472V0h-29.457v105.743h50.001c13.997 0 24.925-3.222 32.78-9.668 7.855-6.443 11.783-15.76 11.783-27.946.001-11.379-3.525-19.964-10.573-25.756zm-23.943 37.841c-2.972 2.719-6.975 4.078-12.01 4.078h-18.58V54.986h18.58c10.976 0 16.466 4.584 16.466 13.747 0 4.936-1.488 8.761-4.456 11.481z"/></svg>