<svg xmlns="http://www.w3.org/2000/svg" width="166.784" height="59.37"><path fill-rule="evenodd" clip-rule="evenodd" fill="#D2D2D2" d="M103.546.296H88.373l-1.337 5.085h4.836l-3.176 12.142h5.497l3.175-12.142h4.84l1.338-5.085zm11.426 14.919c.124-1.109.203-1.9.238-2.374s.001-.971-.102-1.488c-.325-1.021-.978-1.638-1.957-1.85l.031-.049c2.451-.663 3.988-2.185 4.607-4.567a5.98 5.98 0 0 0 .178-.867c.323-2.482-1.178-3.724-4.502-3.724h-8.875l-4.516 17.227h5.496l1.541-5.851h1.227c.396 0 .703.057.919.172.216.114.349.354.401.72.061.285.036.844-.072 1.675-.049.374-.121.849-.217 1.425-.098.577-.162.992-.195 1.245a6.86 6.86 0 0 0-.06.614h5.722c-.033-.43.012-1.2.136-2.308zm-2.952-9.292c-.142.547-.351.96-.626 1.238a1.923 1.923 0 0 1-.922.54c-.338.08-.731.12-1.182.12h-1.432l.968-3.676h1.517c.614 0 1.07.114 1.37.344.299.229.401.707.307 1.434zM124.419.296l-9.537 17.227h5.471l1.861-3.729h4.636l-.034 3.729h5.762L131.983.296h-7.564zm-.355 9.351l3.052-5.652h.041l.086 5.652h-3.179zM148.61.296l-3.176 12.141h-.039l.531-12.141H137.7l-4.513 17.227h4.717l3.261-12.491h.04l-.472 12.491h8.082L153.327.296h-4.717zm11.268 4.055c.484-.137 1.061-.205 1.729-.205 1.475 0 2.811.287 4.008.862l1.17-4.417A18.166 18.166 0 0 0 162.186 0a14.76 14.76 0 0 0-3.673.446c-1.159.297-2.209.86-3.15 1.69-.939.829-1.601 1.977-1.981 3.443a9.81 9.81 0 0 0-.19 1.006c-.158 1.214.025 2.128.549 2.745.523.616 1.201 1.06 2.03 1.328.829.27 1.604.528 2.324.777s1.051.599.992 1.049c-.099.401-.405.7-.917.895-.513.195-1.126.292-1.84.292-1.772 0-3.316-.377-4.633-1.133l-1.172 4.465c.974.289 1.902.497 2.787.624s1.854.19 2.909.19c1.194 0 2.36-.172 3.495-.516 1.137-.344 2.157-.946 3.063-1.808.906-.862 1.546-2.012 1.921-3.45.085-.35.147-.679.188-.988.158-1.213-.027-2.124-.558-2.735-.53-.61-1.23-1.049-2.102-1.316s-1.648-.514-2.331-.741c-.684-.227-.997-.556-.941-.985.13-.482.438-.791.922-.927zM74.791.355H58.733l-6.037 23.372H66.02l-2.609 10.05H39.227l3.252-12.558h-8.531L27.75 45.211h35.608c3.643 0 7.348-2.954 8.276-6.597l8.069-31.662c.93-3.642-1.27-6.597-4.912-6.597z"/><path fill-rule="evenodd" clip-rule="evenodd" fill="#A3A3A3" d="M95.583 38.023h-8.921l4.2-16.064h-7.265l-5.976 22.793h16.193l1.769-6.729zm4.855 6.08c1.274.693 2.884 1.04 4.827 1.04 1.651 0 3.2-.251 4.646-.753a12.283 12.283 0 0 0 3.929-2.244c1.174-.994 2.189-2.226 3.048-3.695s1.538-3.17 2.04-5.099c.221-.877.383-1.714.486-2.512.26-1.998.121-3.69-.414-5.078s-1.445-2.433-2.732-3.137c-1.286-.704-2.901-1.057-4.844-1.057-1.657 0-3.201.255-4.632.766a12.283 12.283 0 0 0-3.892 2.26c-1.162.997-2.172 2.229-3.027 3.699s-1.533 3.156-2.033 5.059c-.225.92-.39 1.78-.494 2.583-.259 1.993-.127 3.679.396 5.059.522 1.378 1.421 2.414 2.696 3.109zm4.497-8.296c.098-.754.266-1.573.504-2.455.455-1.669 1.038-3.136 1.748-4.401.71-1.265 1.648-1.896 2.814-1.896 1.559 0 2.172 1.283 1.838 3.851-.068.525-.238 1.342-.511 2.447-.334 1.212-.665 2.239-.993 3.081a7.05 7.05 0 0 1-1.395 2.244c-.602.654-1.345.981-2.229.981-1.518-.001-2.11-1.285-1.776-3.852zm18.154 8.945h7.266l1.836-6.992 11.246-15.801h-7.511l-5.505 9.535h-.053l-.443-9.535h-7.895l2.888 15.801-1.829 6.992zm37.65-21.011c-1.217-1.188-3.114-1.782-5.692-1.782H144.39l-5.975 22.793h10.364c1.921 0 3.681-.357 5.279-1.072s3.024-1.916 4.276-3.604 2.238-3.905 2.957-6.653c.33-1.28.558-2.402.683-3.364.394-3.024-.018-5.13-1.235-6.318zm-6.468 6.94a19.433 19.433 0 0 1-.518 2.512c-.359 1.365-.735 2.467-1.129 3.304-.394.838-.884 1.476-1.471 1.914s-1.304.657-2.152.657h-1.82l3.085-11.814h1.788c.963 0 1.611.277 1.945.833s.424 1.419.272 2.594zM5.761 45.211H16.89l6.197-23.991h-9.555l2.609-10.049h28.94L47.882.356H17.193c-3.642 0-7.348 2.954-8.276 6.597L.848 38.614c-.929 3.643 1.271 6.597 4.913 6.597zM.514 52.023L0 54.156h2.343l-1.219 5.09h2.663l1.219-5.09h2.345l.514-2.133H.514zm13.349 0h-4.3l-1.735 7.223h2.663l.593-2.453h.594c.192 0 .342.024.45.072s.179.148.214.302c.036.12.04.354.009.703-.014.156-.036.355-.068.597-.032.242-.052.416-.062.521a2.301 2.301 0 0 0-.013.258h2.772c-.028-.18-.026-.502.004-.967.031-.466.049-.797.053-.996a2.092 2.092 0 0 0-.088-.624c-.184-.428-.517-.686-.997-.775l.014-.021c1.17-.277 1.875-.916 2.112-1.914.031-.12.052-.241.063-.364.091-1.041-.668-1.562-2.278-1.562zm-.824 2.879a.91.91 0 0 1-.432.227c-.162.033-.352.05-.57.05h-.693l.372-1.54h.735c.298 0 .522.047.673.144.151.096.213.296.186.602-.054.227-.144.401-.271.517zm7.322-2.879l-4.167 7.223h2.65l.804-1.563h2.246l.082 1.563h2.792l-.741-7.223h-3.666zm.074 3.921l1.33-2.369h.02l.19 2.369h-1.54zm11.619 1.17h-.02l-.062-5.091h-3.986l-1.732 7.223h2.285l1.251-5.236h.02l.1 5.236h3.915l1.733-7.223h-2.285l-1.219 5.091zm7.213-5.027c-.554.125-1.048.361-1.482.709s-.724.829-.87 1.443a3.517 3.517 0 0 0-.066.422c-.044.509.068.893.338 1.15.27.259.609.444 1.019.558.409.113.791.222 1.146.326.355.104.525.251.508.439-.038.168-.178.293-.421.375s-.538.122-.884.122c-.858 0-1.617-.158-2.274-.475l-.45 1.872c.479.121.935.209 1.367.262.432.053.903.079 1.414.079a6.46 6.46 0 0 0 1.68-.216c.542-.145 1.02-.396 1.437-.758s.696-.844.839-1.446c.032-.146.054-.285.065-.414.044-.509-.07-.892-.342-1.147-.273-.256-.624-.439-1.053-.552a59.664 59.664 0 0 1-1.149-.311c-.337-.096-.497-.233-.481-.413.05-.202.19-.332.422-.39.231-.057.509-.085.832-.085.715 0 1.37.12 1.964.36l.451-1.852a10.307 10.307 0 0 0-2.244-.247 8.13 8.13 0 0 0-1.766.189zm12.039.125a2.831 2.831 0 0 0-1.035-.188h-4.579l-1.734 7.223h2.663l.5-2.079h1.906c.48 0 .935-.093 1.365-.278.43-.187.806-.479 1.127-.877.321-.398.555-.9.701-1.505.04-.156.067-.322.083-.497.042-.477-.034-.864-.226-1.163a1.584 1.584 0 0 0-.771-.636zm-2.295 3.086c-.266.128-.593.192-.98.192h-.584l.433-1.789h.577c.369 0 .649.056.843.167.193.111.274.342.244.692-.09.364-.267.61-.533.738zm11.13-3.064c-.485-.223-1.083-.334-1.795-.334a5.56 5.56 0 0 0-1.68.242c-.514.161-.974.4-1.38.716a4.317 4.317 0 0 0-1.036 1.173c-.284.465-.499 1-.644 1.603a6.423 6.423 0 0 0-.129.818c-.055.632.027 1.166.246 1.604.219.437.569.766 1.049.984.48.221 1.076.33 1.788.33a5.73 5.73 0 0 0 1.686-.238c.52-.159.984-.396 1.394-.711.41-.315.757-.706 1.042-1.172a5.53 5.53 0 0 0 .646-1.615 5.91 5.91 0 0 0 .128-.796c.055-.633-.029-1.169-.252-1.609-.224-.44-.578-.771-1.063-.995zm-1.595 3.4c-.098.384-.199.71-.303.977-.103.267-.258.504-.466.711s-.473.311-.796.311c-.556 0-.799-.406-.728-1.22.021-.239.066-.499.136-.778.134-.528.318-.994.553-1.395.234-.4.565-.601.992-.601.571 0 .821.406.75 1.22a6.75 6.75 0 0 1-.138.775zm9.742-3.611h-4.3l-1.735 7.223h2.663l.592-2.453h.594c.192 0 .342.024.45.072s.179.148.214.302c.036.12.04.354.009.703-.014.156-.036.355-.068.597-.032.242-.052.416-.062.521a2.301 2.301 0 0 0-.013.258h2.772c-.028-.18-.026-.502.004-.967.031-.466.049-.797.053-.996a2.063 2.063 0 0 0-.089-.624c-.184-.428-.516-.686-.997-.775l.014-.021c1.171-.277 1.875-.916 2.112-1.914.032-.12.053-.241.063-.364.093-1.041-.666-1.562-2.276-1.562zm-.825 2.879a.91.91 0 0 1-.432.227c-.162.033-.352.05-.57.05h-.693l.372-1.54h.735c.297 0 .522.047.673.144.15.096.213.296.186.602-.053.227-.144.401-.271.517zm4.624-.746h2.343l-1.219 5.09h2.663l1.219-5.09h2.345l.514-2.133h-7.351l-.514 2.133zm22.051-2.133h-2.661l-1.735 7.223h5.93l.514-2.132H92.92l1.218-5.091zm10.507.211c-.485-.223-1.083-.334-1.795-.334a5.57 5.57 0 0 0-1.681.242c-.514.161-.975.4-1.38.716a4.297 4.297 0 0 0-1.035 1.173c-.284.465-.499 1-.644 1.603a6.619 6.619 0 0 0-.13.818c-.056.632.026 1.166.245 1.604.22.437.569.766 1.05.984.48.221 1.077.33 1.788.33.605 0 1.167-.079 1.687-.238a4.376 4.376 0 0 0 1.394-.711 4.27 4.27 0 0 0 1.043-1.172 5.53 5.53 0 0 0 .646-1.615c.063-.277.105-.543.128-.796.055-.633-.029-1.169-.252-1.609-.226-.44-.579-.771-1.064-.995zm-1.595 3.4c-.099.384-.199.71-.303.977s-.259.504-.467.711a1.078 1.078 0 0 1-.795.311c-.557 0-.799-.406-.729-1.22.021-.239.066-.499.137-.778.133-.528.316-.994.552-1.395s.565-.601.993-.601c.57 0 .82.406.749 1.22-.014.166-.06.424-.137.775zm7.74-3.503c-.537.154-1.033.385-1.489.69s-.847.687-1.173 1.143c-.326.457-.56.979-.699 1.569a4.843 4.843 0 0 0-.123.732c-.059.673.047 1.244.314 1.71.27.467.668.815 1.195 1.048.528.231 1.143.347 1.845.347.553 0 1.063-.03 1.533-.092s.946-.161 1.431-.3l.813-3.396h-2.283l-.457 1.925c-.115.041-.309.062-.58.062-.42 0-.715-.125-.889-.375-.172-.251-.24-.584-.204-1 .016-.18.044-.342.083-.487a2.63 2.63 0 0 1 .53-1.092c.253-.303.563-.531.931-.685a3.154 3.154 0 0 1 1.218-.229c.362 0 .697.038 1.006.115.309.076.551.176.726.297l.459-1.945c-.678-.179-1.521-.268-2.53-.268a5.99 5.99 0 0 0-1.657.231zm4.986 7.115h2.664l1.731-7.223h-2.66l-1.735 7.223zm8.165-7.159a3.594 3.594 0 0 0-1.481.709c-.435.348-.725.829-.87 1.443a3.499 3.499 0 0 0-.065.422c-.045.509.068.893.338 1.15.27.259.609.444 1.019.558s.791.222 1.146.326c.355.104.524.251.509.439-.038.168-.178.293-.422.375a2.776 2.776 0 0 1-.883.122c-.859 0-1.617-.158-2.275-.475l-.449 1.872c.479.121.935.209 1.367.262.432.053.902.079 1.414.079.578 0 1.139-.071 1.68-.216s1.02-.396 1.437-.758.696-.844.839-1.446c.033-.146.055-.285.066-.414.044-.509-.07-.892-.343-1.147s-.624-.439-1.054-.552a61.446 61.446 0 0 1-1.148-.311c-.337-.096-.498-.233-.481-.413.05-.202.19-.332.422-.39.231-.057.509-.085.832-.085.715 0 1.37.12 1.964.36l.451-1.852a10.307 10.307 0 0 0-2.244-.247 8.145 8.145 0 0 0-1.769.189zm5.515 2.069h2.342l-1.218 5.09h2.663l1.219-5.09h2.344l.514-2.133h-7.35l-.514 2.133zm7.928 5.09h2.662l1.732-7.223h-2.66l-1.734 7.223zm10.457-7.346c-.565 0-1.117.076-1.654.23s-1.033.385-1.49.69a4.561 4.561 0 0 0-1.172 1.143 4.414 4.414 0 0 0-.7 1.569 4.835 4.835 0 0 0-.122.732c-.059.673.046 1.244.314 1.71.27.467.668.815 1.195 1.048.527.231 1.143.347 1.844.347.609 0 1.271-.097 1.982-.29l.456-1.913c-.565.186-1.067.278-1.506.278-.33 0-.614-.056-.854-.167s-.417-.278-.534-.501c-.115-.224-.16-.498-.131-.823.01-.109.031-.236.064-.381.09-.381.254-.708.49-.981.238-.273.525-.48.862-.62s.694-.21 1.071-.21c.348 0 .77.09 1.266.271l.455-1.905a19.666 19.666 0 0 0-.98-.175 6.012 6.012 0 0 0-.856-.052zm5.336.187c-.555.125-1.049.361-1.482.709s-.724.829-.869 1.443a3.517 3.517 0 0 0-.066.422c-.045.509.068.893.338 1.15.271.259.61.444 1.02.558.408.113.791.222 1.146.326.355.104.524.251.508.439-.037.168-.178.293-.421.375s-.538.122-.884.122c-.858 0-1.617-.158-2.274-.475l-.45 1.872c.48.121.936.209 1.367.262s.903.079 1.414.079a6.46 6.46 0 0 0 1.68-.216 3.567 3.567 0 0 0 1.438-.758c.416-.361.695-.844.839-1.446.032-.146.054-.285.065-.414.045-.509-.07-.892-.342-1.147-.273-.256-.624-.439-1.053-.552-.43-.112-.813-.216-1.149-.311-.337-.096-.497-.233-.481-.413.049-.202.19-.332.422-.39a3.51 3.51 0 0 1 .832-.085c.715 0 1.369.12 1.964.36l.45-1.852a10.305 10.305 0 0 0-2.243-.247 8.124 8.124 0 0 0-1.769.189z"/></svg>