<svg xmlns="http://www.w3.org/2000/svg" width="51.811" height="59.527"><path fill-rule="evenodd" clip-rule="evenodd" fill="#ED3D5B" d="M36.888 10.155C36.447 4.481 31.69 0 25.905 0S15.363 4.481 14.922 10.155A25.928 25.928 0 0 0 0 33.622c0 6.92 2.695 13.425 7.587 18.318 4.893 4.893 11.398 7.587 18.318 7.587 6.92 0 13.425-2.694 18.318-7.587 4.893-4.894 7.587-11.398 7.587-18.318a25.925 25.925 0 0 0-14.922-23.467zm-.073 2.611a23.677 23.677 0 0 1 3.014 1.879 23.429 23.429 0 0 1-4.168 2.451 16.527 16.527 0 0 0 1.154-4.33zM25.905 2.371c4.767 0 8.645 3.878 8.645 8.645 0 7.151-6.492 12.961-8.645 14.689-2.152-1.729-8.645-7.538-8.645-14.689.001-4.767 3.879-8.645 8.645-8.645zm7.627 32.438c-.066 4.226-.519 8.249-1.309 11.748-2.055-.518-4.177-.786-6.318-.786s-4.264.269-6.317.786c-.791-3.499-1.243-7.522-1.309-11.748h15.253zm-15.248-2.372c.066-3.546.406-6.961.999-10.057 2.71 3.482 5.712 5.629 5.94 5.79a1.187 1.187 0 0 0 1.366 0c.228-.161 3.231-2.308 5.941-5.79.593 3.096.932 6.513.998 10.057H18.284zm-3.289-19.671a16.499 16.499 0 0 0 1.154 4.329 23.345 23.345 0 0 1-4.167-2.45 23.373 23.373 0 0 1 3.013-1.879zm-4.902 3.424a25.725 25.725 0 0 0 7.241 3.934c-.857 3.701-1.343 7.917-1.422 12.313H2.402a23.559 23.559 0 0 1 7.691-16.247zM2.401 34.809h13.506c.068 4.461.554 8.721 1.406 12.433a25.867 25.867 0 0 0-7.148 3.86c-4.508-4.064-7.442-9.84-7.764-16.293zm9.663 17.834a23.515 23.515 0 0 1 5.846-3.099c.2.688.414 1.353.642 1.987.76 2.12 1.649 3.849 2.633 5.148a23.418 23.418 0 0 1-9.121-4.036zm13.841 4.512c-1.765 0-3.68-2.401-5.121-6.424-.215-.6-.417-1.228-.606-1.879 1.862-.467 3.786-.711 5.727-.711s3.865.244 5.727.711a32.167 32.167 0 0 1-.605 1.879c-1.442 4.023-3.356 6.424-5.122 6.424zm4.721-.475c.984-1.3 1.873-3.028 2.633-5.148a33.85 33.85 0 0 0 .642-1.987 23.572 23.572 0 0 1 5.847 3.099 23.443 23.443 0 0 1-9.122 4.036zm11.02-5.578a25.867 25.867 0 0 0-7.148-3.86c.853-3.711 1.338-7.972 1.406-12.433h6.618a1.187 1.187 0 0 0 0-2.373H35.9c-.08-4.395-.566-8.612-1.424-12.313a25.677 25.677 0 0 0 7.242-3.933 23.553 23.553 0 0 1 7.721 17.432c-.001 6.93-3.011 13.169-7.793 17.48zm5.183-18.665h-.512a1.187 1.187 0 1 0 0 2.373h.512a1.187 1.187 0 0 0 0-2.373zM31.407 11.016a5.51 5.51 0 0 0-5.502-5.502 5.509 5.509 0 0 0-5.502 5.502 5.507 5.507 0 0 0 5.502 5.501 5.508 5.508 0 0 0 5.502-5.501zm-8.632 0a3.133 3.133 0 0 1 3.13-3.13c1.727 0 3.13 1.404 3.13 3.13s-1.403 3.13-3.13 3.13a3.134 3.134 0 0 1-3.13-3.13z"/></svg>