<svg xmlns="http://www.w3.org/2000/svg" width="26.899" height="64.483"><path fill-rule="evenodd" clip-rule="evenodd" fill="#FFF" d="M22.375 19.57H4.525a4.513 4.513 0 0 0-3.223 1.333A4.522 4.522 0 0 0 0 24.093v17.14a4.533 4.533 0 0 0 4.525 4.525h.005v14.199a4.533 4.533 0 0 0 4.525 4.525h8.788a4.533 4.533 0 0 0 4.525-4.525V45.706h.007a4.533 4.533 0 0 0 4.523-4.526V24.094a4.532 4.532 0 0 0-4.523-4.524zm2.024 21.61a2.02 2.02 0 0 1-.596 1.431 2.012 2.012 0 0 1-1.428.596h-2.507v16.752c0 .555-.225 1.056-.597 1.429a2.011 2.011 0 0 1-1.429.597H9.056a2.014 2.014 0 0 1-1.429-.597 2.014 2.014 0 0 1-.596-1.429V43.26H4.525a2.01 2.01 0 0 1-1.429-.597 2.011 2.011 0 0 1-.596-1.43v-17.14c.001-.568.22-1.067.581-1.433.362-.362.85-.589 1.444-.591h17.851a2.02 2.02 0 0 1 1.428.596c.371.372.596.872.596 1.428V41.18zM13.422 17.674a8.837 8.837 0 0 0 0-17.674 8.839 8.839 0 0 0-8.838 8.837 8.839 8.839 0 0 0 8.838 8.837zM8.941 4.356C10.092 3.207 11.668 2.5 13.422 2.5s3.33.707 4.48 1.856 1.855 2.727 1.857 4.48a6.32 6.32 0 0 1-1.855 4.481 6.322 6.322 0 0 1-4.482 1.855 6.316 6.316 0 0 1-4.481-1.855 6.315 6.315 0 0 1-1.857-4.481 6.313 6.313 0 0 1 1.857-4.48z"/></svg>