<svg xmlns="http://www.w3.org/2000/svg" width="69.117" height="42.246"><path fill-rule="evenodd" clip-rule="evenodd" fill="#ED3D5B" d="M68.73 21.819l.045-.042-10.223-11.672s-.024.011-.067.027a1.372 1.372 0 0 0-1.059-.497h-8.801V1.377c0-.76-.617-1.377-1.377-1.377H3.955c-.76 0-1.377.617-1.377 1.377v30.244H1.376a1.376 1.376 0 0 0 0 2.754h1.202v1.609c0 .76.617 1.376 1.377 1.376h2.713c.629 2.793 3.128 4.886 6.108 4.886s5.479-2.093 6.108-4.886h32.297c.63 2.793 3.129 4.886 6.109 4.886 2.979 0 5.479-2.093 6.107-4.886h4.342c.76 0 1.377-.616 1.377-1.376v-13.21a1.367 1.367 0 0 0-.386-.955zM12.776 39.493a3.513 3.513 0 0 1-3.509-3.509 3.513 3.513 0 0 1 3.509-3.51 3.513 3.513 0 0 1 3.509 3.51 3.513 3.513 0 0 1-3.509 3.509zm33.095-4.887H18.885c-.629-2.793-3.128-4.886-6.108-4.886s-5.479 2.093-6.108 4.886H5.332v-6.067h40.539v6.067zm0-8.821H5.332V2.754h40.539v23.031zM58.803 14.57l5.98 6.827h-5.98V14.57zM57.29 39.493a3.513 3.513 0 0 1-3.509-3.509c0-1.936 1.574-3.51 3.509-3.51s3.509 1.574 3.509 3.51a3.513 3.513 0 0 1-3.509 3.509zm9.073-4.887h-2.965c-.629-2.793-3.129-4.886-6.108-4.886s-5.479 2.093-6.108 4.886h-2.557V12.39h7.424v10.385c0 .76.616 1.377 1.377 1.377h8.938v10.454zM30.979 24.29h11.565a1.376 1.376 0 1 0 0-2.754H30.979a1.378 1.378 0 0 0 0 2.754zm-5.095 0h.826a1.377 1.377 0 1 0 0-2.754h-.826a1.378 1.378 0 0 0 0 2.754z"/></svg>