<svg xmlns="http://www.w3.org/2000/svg" width="41.425" height="52.119"><path fill-rule="evenodd" clip-rule="evenodd" fill="#ED3D5B" d="M40.264 2.905H28.873V1.16c0-.642-.52-1.16-1.16-1.16h-14a1.16 1.16 0 0 0-1.161 1.16v1.745H1.16c-.64 0-1.16.52-1.16 1.16v46.894c0 .641.52 1.16 1.16 1.16h39.104c.641 0 1.161-.52 1.161-1.16V4.065c0-.64-.52-1.16-1.161-1.16zM14.873 2.32h11.679v3.49H14.873V2.32zm24.23 47.479H2.321V5.227h10.231v1.745c0 .641.52 1.16 1.161 1.16h14c.641 0 1.16-.52 1.16-1.16V5.227h10.23v44.572zM10.18 13.987a4.011 4.011 0 0 0-4.006 4.006 4.01 4.01 0 0 0 4.006 4.005 4.01 4.01 0 0 0 4.005-4.005 4.01 4.01 0 0 0-4.005-4.006zm0 5.691a1.687 1.687 0 0 1-1.685-1.686c0-.929.756-1.685 1.685-1.685s1.685.756 1.685 1.685a1.689 1.689 0 0 1-1.685 1.686zm6.769-1.746c0 .642.52 1.161 1.161 1.161h15.98a1.161 1.161 0 0 0 0-2.321H18.11a1.16 1.16 0 0 0-1.161 1.16zm-6.769 6.283c-2.208 0-4.006 1.797-4.006 4.006s1.797 4.006 4.006 4.006c2.208 0 4.005-1.797 4.005-4.006s-1.797-4.006-4.005-4.006zm0 5.69c-.929 0-1.685-.756-1.685-1.685s.756-1.685 1.685-1.685 1.685.756 1.685 1.685-.757 1.685-1.685 1.685zm23.909-2.906h-15.98a1.162 1.162 0 0 0 0 2.322h15.98a1.162 1.162 0 0 0 0-2.322zM10.18 34.843a4.01 4.01 0 0 0-4.006 4.005 4.01 4.01 0 0 0 4.006 4.006 4.01 4.01 0 0 0 4.005-4.006 4.01 4.01 0 0 0-4.005-4.005zm0 5.69a1.687 1.687 0 0 1-1.685-1.686c0-.928.756-1.685 1.685-1.685s1.685.757 1.685 1.685a1.689 1.689 0 0 1-1.685 1.686zm23.909-2.906h-.303a1.16 1.16 0 0 0 0 2.321h.303a1.16 1.16 0 0 0 0-2.321zm-4.539 0H18.109a1.161 1.161 0 0 0 0 2.321H29.55a1.16 1.16 0 0 0 0-2.321z"/></svg>