<svg xmlns="http://www.w3.org/2000/svg" width="55.049" height="53.07"><path fill-rule="evenodd" clip-rule="evenodd" fill="#FFF" d="M38.161 44.459c.126 0 .254-.021.38-.067l11.404-4.208a1.097 1.097 0 0 0-.759-2.057l-11.405 4.207a1.1 1.1 0 0 0-.649 1.409c.164.442.584.716 1.029.716zm-3.619 1.336c.127 0 .255-.022.381-.068l.482-.178a1.096 1.096 0 1 0-.76-2.057l-.482.178a1.097 1.097 0 0 0 .379 2.125zm6.012-6.687a1.1 1.1 0 0 0 .379-.068l9.013-3.325a1.096 1.096 0 0 0-.759-2.057l-9.014 3.325a1.098 1.098 0 0 0 .381 2.125zm0-4.422c.125 0 .254-.021.379-.067l9.013-3.325a1.098 1.098 0 0 0-.759-2.058l-9.014 3.326a1.096 1.096 0 1 0 .381 2.124zM54.332 9.819L27.904.068a1.09 1.09 0 0 0-.759 0L.717 9.819v.001A1.097 1.097 0 0 0 0 10.849v31.374c0 .459.286.869.717 1.028l26.428 9.752a1.107 1.107 0 0 0 .759-.001v.001l26.428-9.752c.431-.159.717-.569.717-1.028V10.849c0-.46-.286-.871-.717-1.03zM26.428 50.4L2.193 41.458V12.422l4.935 1.821v13.286c0 .459.286.87.717 1.028l11.843 4.37a1.089 1.089 0 0 0 1.007-.129c.294-.205.47-.541.47-.899V19.422l5.264 1.942V50.4zm-7.457-31.788v11.714l-9.65-3.562V15.052l9.65 3.56zm-7.579-5.142l8.675-3.202 8.676 3.202-8.676 3.201-8.675-3.201zm16.132 5.961l-4.301-1.587 9.066-3.346a1.095 1.095 0 1 0 0-2.057L20.447 8.07a1.1 1.1 0 0 0-.759 0L8.212 12.306l-3.948-1.457 23.26-8.583 23.26 8.583-23.26 8.582zm25.331 22.027L28.621 50.4V21.364l24.234-8.942v29.036z"/></svg>