<svg xmlns="http://www.w3.org/2000/svg" width="56.501" height="56.501"><path fill-rule="evenodd" clip-rule="evenodd" fill="#FFF" d="M20.742 25.623h-7.505v3.363h6.168l-4.869 12.25h18.528l1.38-3.472H19.71l3.489-8.778h12.016v-3.363H24.536l2.843-7.153h14.734l1.379-3.471H24.964l-4.222 10.624zM28.25 0C12.648 0 0 12.648 0 28.251s12.648 28.25 28.25 28.25c15.603 0 28.25-12.647 28.25-28.25S43.854 0 28.25 0zm0 53.111c-13.73 0-24.86-11.131-24.86-24.86 0-13.73 11.13-24.861 24.86-24.861 13.73 0 24.86 11.131 24.86 24.861 0 13.729-11.13 24.86-24.86 24.86z"/></svg>