<svg xmlns="http://www.w3.org/2000/svg" width="142.43" height="39.519"><path fill-rule="evenodd" clip-rule="evenodd" fill="#FFF" d="M48.751 30.254H61.71v-2.429H51.405v-5.816h9.486V19.61h-9.486v-5.28H61.71v-2.429H48.751v18.353zM19.76 0C8.847 0 0 8.847 0 19.759c0 10.913 8.847 19.76 19.76 19.76 10.913 0 19.759-8.847 19.759-19.76C39.519 8.847 30.672 0 19.76 0zm-.001 37.147c-9.604 0-17.388-7.786-17.388-17.389S10.156 2.37 19.759 2.37c9.603 0 17.388 7.786 17.388 17.389s-7.785 17.388-17.388 17.388zm-5.251-19.226H9.259v2.353h4.314l-3.406 8.568h12.959l.965-2.429H13.787l2.44-6.14h8.404V17.92h-7.469l1.988-5.003h10.305l.965-2.428H17.461l-2.953 7.432zm51.155-3.591h11.124L65.663 27.91v2.344H80.26v-2.429H69.221l11.096-13.58v-2.344H65.663v2.429zm32.441-.395a10.044 10.044 0 0 0-3.19-1.539c-1.167-.329-2.447-.494-3.84-.494h-6.239v18.353h6.014c1.373 0 2.662-.175 3.867-.523a10.567 10.567 0 0 0 3.275-1.58c.979-.706 1.75-1.661 2.315-2.866.564-1.204.847-2.598.847-4.179 0-1.655-.268-3.091-.805-4.305-.536-1.216-1.285-2.171-2.244-2.867zm-1.85 12.126c-1.326 1.177-3.317 1.765-5.971 1.765h-2.796V14.33h3.05c2.635 0 4.578.588 5.83 1.765 1.251 1.176 1.877 2.837 1.877 4.982 0 2.147-.663 3.808-1.99 4.984zm21.979-14.16s-6.399 6.005-9.261 9.374l9.6 8.979h3.727l-9.592-9.205 9.592-9.147h-4.066zm-12.139 18.353h2.653V11.901h-2.653v18.353zm28.519-18.353h-3.369l-7.815 18.353h2.852c.376-1.262.999-2.843 1.753-4.744h9.877c.545 1.394 1.169 2.975 1.752 4.744h2.768l-7.818-18.353zm-5.679 11.238s2.814-6.6 4.037-8.896l4.066 8.896h-8.103z"/></svg>