<svg xmlns="http://www.w3.org/2000/svg" width="15.135" height="18.3"><path fill-rule="evenodd" clip-rule="evenodd" fill="#FFF" d="M10.161 6.913c.341 0 .69-.211 1.052-.633v.562h.93V1.746h-.93v3.891c-.204.293-.398.439-.582.439-.123 0-.194-.075-.215-.225a2.665 2.665 0 0 1-.01-.357V1.746h-.93V5.77c0 .348.027.603.082.766.088.251.29.377.603.377zm-2.808 0c.47 0 .831-.173 1.083-.521.19-.252.285-.653.285-1.205V3.4c0-.544-.095-.943-.285-1.194-.252-.348-.613-.521-1.083-.521-.457 0-.814.174-1.072.521-.191.251-.286.65-.286 1.194v1.787c0 .545.095.946.286 1.205.258.348.615.521 1.072.521zm-.439-3.696c0-.47.146-.704.439-.704.292 0 .439.234.439.704v2.145c0 .477-.146.715-.439.715-.293 0-.439-.238-.439-.715V3.217zm5.719 8.803c-.307 0-.46.231-.46.694v.47h.919v-.47c0-.463-.154-.694-.459-.694zm2.236-2.564c-.089-.401-.285-.738-.588-1.011s-.651-.433-1.047-.48c-1.252-.136-3.141-.203-5.667-.203s-4.412.067-5.658.203c-.401.048-.752.208-1.052.48s-.496.61-.591 1.011C.088 10.246 0 11.438 0 13.03c0 1.62.088 2.812.266 3.574.088.401.284.739.587 1.012.303.271.652.428 1.047.469 1.252.144 3.142.215 5.667.215s4.415-.071 5.667-.215a1.787 1.787 0 0 0 1.042-.469c.3-.272.497-.61.593-1.012.177-.789.266-1.981.266-3.574 0-1.62-.089-2.811-.266-3.574zM4.32 10.487H3.228v5.811H2.206v-5.811H1.134v-.96H4.32v.96zm2.757 5.811h-.909v-.552c-.368.416-.715.623-1.042.623-.313 0-.511-.126-.592-.378-.054-.162-.082-.412-.082-.745v-3.992h.909v3.717c0 .218.003.337.01.357.021.143.092.214.215.214.184 0 .378-.143.582-.429v-3.859h.909v5.044zm3.472-1.511c0 .497-.03.837-.092 1.021-.115.374-.357.561-.725.561-.326 0-.643-.187-.949-.561v.489h-.909v-6.77h.909v2.216c.293-.367.609-.551.949-.551.367 0 .609.19.725.572.062.177.092.514.092 1.011v2.012zm3.452-.838h-1.828v.889c0 .47.157.704.47.704.225 0 .361-.122.408-.367.014-.068.021-.275.021-.623h.929v.133c0 .334-.007.531-.021.593a1.25 1.25 0 0 1-.215.552c-.244.36-.613.54-1.103.54-.47 0-.837-.174-1.103-.521-.197-.252-.297-.646-.297-1.185v-1.767c0-.538.096-.933.286-1.185.266-.348.63-.521 1.093-.521.456 0 .817.173 1.082.521.185.252.276.646.276 1.185v1.052zM3.728 4.074v2.768h1.021V4.074L5.984 0H4.943l-.694 2.686L3.523 0H2.441c.19.572.412 1.208.664 1.91.32.939.527 1.66.623 2.164zm5.514 7.946c-.156 0-.311.075-.46.225v3.073c.149.15.304.225.46.225.266 0 .398-.228.398-.684v-2.154c.001-.458-.132-.685-.398-.685z"/></svg>