<svg xmlns="http://www.w3.org/2000/svg" width="15.331" height="15.331"><path fill-rule="evenodd" clip-rule="evenodd" fill="#FFF" d="M7.665 3.729a3.937 3.937 0 1 0 .002 7.874 3.937 3.937 0 0 0-.002-7.874zm0 6.394a2.457 2.457 0 1 1 0-4.913 2.457 2.457 0 0 1 0 4.913zm3.934-7.408a1.017 1.017 0 1 0 0 2.034 1.017 1.017 0 0 0 0-2.034zm3.686 1.791c-.037-.815-.168-1.373-.357-1.86-.195-.505-.457-.933-.883-1.358S13.191.6 12.686.403c-.487-.189-1.044-.319-1.86-.356C10.008.01 9.748 0 7.665 0c-2.082 0-2.343.01-3.16.047-.816.037-1.373.167-1.861.356a3.762 3.762 0 0 0-1.357.884 3.746 3.746 0 0 0-.885 1.359C.213 3.133.083 3.69.046 4.506.009 5.323 0 5.584 0 7.667c0 2.081.009 2.342.046 3.159.037.816.167 1.373.356 1.861.196.504.458.932.884 1.358.426.425.854.687 1.357.883.488.189 1.045.32 1.861.356.817.037 1.078.046 3.16.046 2.083 0 2.343-.009 3.161-.046.816-.036 1.373-.167 1.86-.356a3.754 3.754 0 0 0 1.358-.883c.426-.427.688-.854.883-1.358.189-.488.32-1.045.357-1.861.037-.817.046-1.078.046-3.159.002-2.083-.007-2.344-.044-3.161zm-1.62 6.139c-.032.719-.153 1.108-.254 1.368-.134.344-.293.59-.552.848a2.283 2.283 0 0 1-.848.552c-.26.101-.648.221-1.367.254-.777.035-1.011.043-2.979.043s-2.201-.008-2.979-.043c-.718-.033-1.108-.153-1.369-.254-.344-.134-.589-.294-.847-.552s-.417-.504-.551-.848c-.101-.26-.221-.649-.254-1.368-.035-.778-.042-1.011-.042-2.978 0-1.969.007-2.202.043-2.979.032-.718.153-1.109.253-1.369.134-.344.293-.59.551-.848s.504-.417.848-.551c.26-.1.65-.221 1.369-.253.778-.035 1.011-.044 2.979-.044 1.967 0 2.202.009 2.979.044.719.032 1.107.153 1.367.253.345.134.59.294.848.552.259.258.418.504.552.848.101.26.222.65.254 1.368.036.777.043 1.011.043 2.979-.001 1.967-.008 2.2-.044 2.978z"/></svg>