<svg xmlns="http://www.w3.org/2000/svg" width="28.25" height="28.251"><path fill-rule="evenodd" clip-rule="evenodd" fill="#FFF" d="M20.563 14.038h2.674c0-4.974-4.051-9.024-9.024-9.024v2.674c1.698 0 3.293.66 4.492 1.858a6.315 6.315 0 0 1 1.858 4.492zM14.212 0v2.674c6.265 0 11.364 5.1 11.364 11.364h2.674C28.25 6.3 21.952 0 14.212 0zm7.235 18.697c-.918-.913-2.065-.907-2.983 0-.699.693-1.399 1.388-2.082 2.094-.189.194-.345.235-.58.108-.453-.247-.929-.447-1.365-.717-2.025-1.269-3.723-2.908-5.226-4.756-.746-.918-1.411-1.898-1.87-3-.098-.225-.081-.373.103-.551.7-.678 1.383-1.371 2.071-2.061.958-.963.952-2.094-.006-3.063-.546-.55-1.096-1.094-1.641-1.64-.563-.567-1.125-1.135-1.693-1.691-.918-.901-2.071-.907-2.989 0-.706.688-1.382 1.399-2.1 2.076-.659.631-.998 1.4-1.066 2.301-.109 1.463.252 2.84.751 4.188 1.033 2.788 2.604 5.255 4.509 7.526 2.576 3.064 5.651 5.49 9.253 7.24 1.623.787 3.305 1.395 5.129 1.491 1.25.069 2.352-.252 3.225-1.227.596-.672 1.268-1.28 1.904-1.922.94-.946.946-2.101.012-3.041a505.504 505.504 0 0 0-3.356-3.355z"/></svg>